<mxfile host="app.diagrams.net" modified="2020-09-15T07:59:15.857Z" agent="5.0 (Windows NT 10.0; Win64; x64) AppleWebKit/537.36 (KHTML, like Gecko) Chrome/73.0.3683.86 Safari/537.36" etag="kMS3gu9oJ5hV-qlPYC_5" version="13.6.9" type="github">
  <diagram id="s5xPu0r5jMyUZeiTGzJ1" name="第 1 页">
    <mxGraphModel dx="1422" dy="745" grid="1" gridSize="10" guides="1" tooltips="1" connect="1" arrows="1" fold="1" page="1" pageScale="1" pageWidth="827" pageHeight="1169" math="0" shadow="0">
      <root>
        <mxCell id="0" />
        <mxCell id="1" parent="0" />
        <mxCell id="zU886t56YEcx3ePHB1yK-3" value="" style="edgeStyle=orthogonalEdgeStyle;rounded=0;orthogonalLoop=1;jettySize=auto;html=1;" edge="1" parent="1" source="zU886t56YEcx3ePHB1yK-1" target="zU886t56YEcx3ePHB1yK-2">
          <mxGeometry relative="1" as="geometry" />
        </mxCell>
        <mxCell id="zU886t56YEcx3ePHB1yK-1" value="" style="rounded=0;whiteSpace=wrap;html=1;" vertex="1" parent="1">
          <mxGeometry x="260" y="150" width="120" height="60" as="geometry" />
        </mxCell>
        <mxCell id="zU886t56YEcx3ePHB1yK-5" value="" style="edgeStyle=orthogonalEdgeStyle;rounded=0;orthogonalLoop=1;jettySize=auto;html=1;" edge="1" parent="1" source="zU886t56YEcx3ePHB1yK-2" target="zU886t56YEcx3ePHB1yK-4">
          <mxGeometry relative="1" as="geometry" />
        </mxCell>
        <mxCell id="zU886t56YEcx3ePHB1yK-2" value="" style="whiteSpace=wrap;html=1;rounded=0;" vertex="1" parent="1">
          <mxGeometry x="260" y="290" width="120" height="60" as="geometry" />
        </mxCell>
        <mxCell id="zU886t56YEcx3ePHB1yK-4" value="" style="whiteSpace=wrap;html=1;rounded=0;" vertex="1" parent="1">
          <mxGeometry x="460" y="290" width="120" height="60" as="geometry" />
        </mxCell>
      </root>
    </mxGraphModel>
  </diagram>
</mxfile>
